<svg xmlns="http://www.w3.org/2000/svg" width="1474.361" height="641.539" filter="invert(93%) hue-rotate(180deg)"><path fill="none" stroke="#1e1e1e" stroke-linecap="round" stroke-width="2" d="M167 313.247h1201m-1201 0h1201m0 0v118m0-118v118m0 0H167m1201 0H167m0 0v-118m0 118v-118M311.376 195.247h876.62m-876.62 0h876.62m0 0v118m0-118v118m0 0h-876.62m876.62 0h-876.62m0 0v-118m0 118v-118"/><text y="15.45" fill="#1e1e1e" dominant-baseline="alphabetic" font-size="16" style="white-space:pre" transform="translate(10 362.647)">Ethernet Packet</text><text y="15.45" fill="#1e1e1e" dominant-baseline="alphabetic" font-size="16" style="white-space:pre" transform="translate(19.383 244.647)">Ethernet Frame</text><path fill="none" stroke="#1e1e1e" stroke-linecap="round" stroke-width="2" d="M277 313.247v118m0-118v118"/><text y="15.45" fill="#1e1e1e" dominant-baseline="alphabetic" font-size="16" style="white-space:pre" transform="rotate(45 -419.37 485.764)">Preamble (7 bytes)</text><path fill="none" stroke="#1e1e1e" stroke-linecap="round" stroke-width="2" d="M311 313.247v117m0-117v117"/><text y="15.45" fill="#1e1e1e" dominant-baseline="alphabetic" font-size="16" style="white-space:pre" transform="rotate(45 -382.648 574.42)">Start Frame (1 byte)</text><path fill="none" stroke="#1e1e1e" stroke-linecap="round" stroke-width="2" d="M1188 312.247v119m0-119v119"/><text y="15.45" fill="#1e1e1e" dominant-baseline="alphabetic" font-size="16" style="white-space:pre" transform="rotate(45 112.909 1770.8)">Inter-packet Gap (12 bytes)</text><path fill="none" stroke="#1e1e1e" stroke-linecap="round" stroke-width="2" d="M404 195.247v118m0-118v118M498.2 195.247v118m0-118v118M546.996 196.247v116m0-116v116"/><text y="15.45" fill="#1e1e1e" dominant-baseline="alphabetic" font-size="16" style="white-space:pre" transform="rotate(-45 382.344 -322.583)">MAC Destination (6 bytes)</text><text y="15.45" fill="#1e1e1e" dominant-baseline="alphabetic" font-size="16" style="white-space:pre" transform="rotate(-45 428.712 -434.526)">MAC Source (6 bytes)</text><text y="15.45" fill="#1e1e1e" dominant-baseline="alphabetic" font-size="16" style="white-space:pre" transform="rotate(-45 465.281 -522.812)">Payload Length (2 bytes)</text><text y="15.45" fill="#1e1e1e" dominant-baseline="alphabetic" font-size="16" style="white-space:pre" transform="rotate(-45 776.117 -1273.237)">CRC Check (4 bytes)</text><path fill="none" stroke="#1e1e1e" stroke-linecap="round" stroke-width="2" d="M1102 194.247v119m0-119v119"/><text y="15.45" fill="#1e1e1e" dominant-baseline="alphabetic" font-size="16" style="white-space:pre" transform="translate(715.678 170.252)">Payload (46-1500 bytes)</text><text y="15.45" fill="#1e1e1e" dominant-baseline="alphabetic" font-size="16" style="white-space:pre" transform="translate(684.005 442.793)">Ethernet Frame</text></svg>
